<?xml version="1.0" standalone="no"?>
<!DOCTYPE svg PUBLIC "-//W3C//DTD SVG 20010904//EN"
 "http://www.w3.org/TR/2001/REC-SVG-20010904/DTD/svg10.dtd">
<svg version="1.0" xmlns="http://www.w3.org/2000/svg"
 width="3649.000000pt" height="3649.000000pt" viewBox="0 0 3649.000000 3649.000000"
 preserveAspectRatio="xMidYMid meet">
<metadata>
Created by potrace 1.14, written by Peter Selinger 2001-2017
</metadata>
<g transform="translate(0.000000,3649.000000) scale(0.100000,-0.100000)"
fill="#000000" stroke="none">
<path d="M6515 20712 c-2 -2 -23 -6 -47 -8 -80 -8 -103 -12 -188 -33 -125 -32
-187 -52 -272 -90 -26 -11 -53 -22 -60 -23 -7 -2 -15 -6 -18 -9 -3 -3 -44 -26
-91 -52 -107 -58 -202 -126 -298 -214 -19 -18 -39 -33 -44 -33 -4 0 -6 -4 -3
-8 3 -5 -5 -14 -17 -21 -12 -7 -39 -33 -59 -59 -21 -26 -48 -59 -60 -74 -46
-54 -54 -64 -78 -103 -13 -22 -28 -41 -32 -43 -4 -2 -8 -9 -8 -16 0 -7 -8 -21
-18 -32 -25 -28 -103 -193 -137 -289 -9 -27 -20 -57 -23 -65 -8 -22 -9 -26
-36 -145 -47 -201 -53 -426 -16 -640 15 -89 16 -96 40 -176 12 -41 23 -78 25
-84 1 -5 8 -23 14 -40 7 -16 14 -34 15 -40 1 -5 10 -27 19 -49 9 -21 17 -40
17 -43 0 -24 174 -367 262 -516 15 -26 28 -50 28 -52 0 -5 46 -75 60 -92 6 -7
9 -13 6 -13 -3 0 22 -43 54 -96 33 -52 60 -99 60 -105 0 -5 4 -9 8 -9 5 0 15
-12 23 -27 32 -62 267 -402 317 -458 6 -7 12 -18 12 -23 0 -6 4 -12 8 -14 5
-1 33 -34 62 -73 48 -62 146 -182 160 -195 3 -3 28 -32 55 -65 28 -33 59 -69
70 -81 11 -12 60 -65 108 -117 106 -115 154 -146 229 -148 79 -3 131 23 213
107 143 147 202 211 315 344 25 29 55 64 68 77 12 13 22 27 22 31 0 4 8 15 18
24 24 23 28 29 152 195 60 81 119 159 130 173 11 14 20 29 20 33 0 4 11 20 25
35 14 15 25 32 25 39 0 7 5 13 10 13 6 0 10 4 10 9 0 4 27 49 60 99 33 51 60
96 60 102 0 5 5 10 10 10 6 0 10 4 10 10 0 5 17 36 37 67 21 32 43 67 49 78 6
11 21 38 34 60 69 119 98 174 166 315 42 85 82 167 90 183 8 15 13 27 9 27 -3
0 1 13 9 29 16 30 83 221 91 256 8 40 13 61 23 100 20 77 36 189 37 262 0 29
3 53 6 53 8 0 -2 198 -15 290 -16 115 -50 248 -91 360 -30 81 -127 274 -150
301 -8 8 -15 19 -15 23 0 6 -22 39 -57 85 -90 121 -239 272 -338 343 -5 4 -23
18 -40 31 -16 13 -55 38 -85 56 -30 19 -58 38 -61 43 -3 5 -9 9 -13 9 -3 -1
-48 18 -99 42 -144 69 -309 120 -457 143 -25 4 -56 9 -70 11 -34 6 -349 10
-355 5z"/>
<path d="M18105 19278 c-16 -5 -39 -11 -50 -13 -11 -2 -34 -8 -52 -13 -17 -6
-34 -8 -37 -4 -3 3 -6 1 -6 -5 0 -5 -6 -10 -12 -11 -48 -4 -96 -29 -104 -54
-4 -13 -8 -135 -8 -273 l-1 -250 -95 -2 c-52 -1 -118 -2 -146 -2 -36 -1 -58
-7 -75 -22 -23 -20 -24 -27 -25 -142 -1 -130 5 -159 40 -174 11 -6 83 -10 159
-9 75 1 138 -1 138 -4 1 -3 3 -162 4 -355 2 -379 8 -458 35 -530 5 -14 8 -25
5 -25 -2 0 7 -24 20 -52 37 -79 92 -150 147 -189 27 -19 55 -40 63 -47 8 -7
15 -11 15 -9 0 3 22 -3 50 -14 65 -25 133 -33 255 -31 147 3 173 6 195 25 22
19 21 14 23 151 2 95 1 101 -23 125 -23 22 -35 25 -115 28 -107 3 -174 24
-219 68 -42 41 -61 77 -71 134 -8 46 -9 710 -2 718 3 2 87 4 188 5 151 0 189
3 212 16 15 9 28 19 28 22 1 3 3 59 4 125 3 138 -6 169 -56 180 -17 4 -110 7
-207 7 l-177 0 2 271 c2 150 1 281 -2 293 -5 24 -34 58 -55 66 -8 3 -28 1 -45
-4z"/>
<path d="M9546 19232 c-11 -2 -28 -14 -37 -26 -17 -20 -18 -79 -19 -1053 0
-640 3 -1041 9 -1057 17 -42 53 -52 188 -51 130 1 153 9 169 59 4 11 8 149 8
306 l1 285 192 1 192 0 53 -65 c28 -36 57 -70 63 -76 6 -5 24 -28 40 -50 17
-22 40 -51 52 -65 43 -50 58 -68 73 -90 8 -12 25 -34 38 -48 13 -15 33 -40 45
-55 12 -15 30 -38 41 -50 10 -12 35 -42 55 -67 71 -89 64 -86 223 -84 154 1
184 8 194 49 4 18 -5 37 -38 82 -55 74 -70 92 -88 112 -8 9 -28 36 -44 59 -16
23 -32 42 -35 42 -4 0 -14 12 -23 28 -10 15 -27 39 -40 54 -13 14 -32 39 -43
54 -11 15 -53 68 -92 118 -40 50 -73 93 -73 96 0 3 30 19 68 35 185 79 333
234 382 400 6 22 14 47 17 55 17 44 30 168 27 256 -3 91 -9 140 -28 222 -12
49 -51 137 -88 193 -37 59 -151 179 -169 179 -4 0 -14 6 -21 13 -22 21 -110
64 -186 91 -68 24 -94 31 -167 43 -37 6 -913 11 -939 5z m374 -342 c7 4 24 4
36 0 14 -6 26 -5 29 1 4 5 12 6 18 2 17 -10 47 -11 47 -1 0 5 6 6 12 2 18 -11
48 -12 48 -2 0 5 6 6 13 1 16 -10 39 -10 55 1 6 5 12 5 12 0 0 -5 22 -9 50 -9
27 0 50 4 50 9 0 5 6 4 13 -2 8 -7 18 -7 27 -2 8 5 21 5 29 1 9 -4 37 -7 63
-7 27 1 48 -3 48 -7 0 -5 5 -5 10 -2 6 3 16 3 23 -2 6 -4 18 -8 25 -9 34 -6
106 -48 138 -82 70 -73 103 -164 108 -301 2 -47 -10 -154 -20 -181 -3 -8 -5
-17 -5 -20 -1 -16 -48 -90 -79 -123 -31 -35 -77 -66 -97 -68 -5 -1 -17 -6 -28
-12 -11 -6 -24 -12 -30 -13 -73 -14 -141 -17 -376 -18 l-276 -1 2 425 c1 234
3 426 3 428 1 1 10 -2 20 -7 10 -5 24 -6 32 -1z"/>
<path d="M20714 19229 c-12 -4 -29 -18 -38 -31 -15 -21 -16 -120 -16 -1056 0
-677 4 -1041 10 -1053 24 -44 41 -46 495 -43 237 1 430 2 430 3 0 1 18 4 40 6
62 4 125 15 151 26 14 5 28 8 32 7 4 -1 14 2 22 5 8 3 45 17 81 31 86 32 219
103 219 119 0 4 5 7 10 7 17 0 168 141 195 182 72 107 94 143 122 200 19 37
36 75 38 85 3 10 14 50 25 88 11 39 23 86 26 105 3 19 8 53 11 75 7 52 7 292
-1 328 -3 15 -8 39 -11 55 -4 21 -23 103 -30 132 -10 37 -69 176 -82 191 -7 8
-13 20 -13 26 0 21 -106 159 -173 225 -56 56 -192 158 -217 164 -3 0 -34 15
-70 31 -51 24 -147 59 -190 68 -40 9 -102 19 -130 21 -19 1 -35 3 -35 5 0 6
-883 5 -901 -2z m423 -343 c18 -1 33 3 33 7 0 5 6 5 12 1 18 -11 48 -12 48 -2
0 5 5 6 12 2 18 -11 78 -11 78 -1 0 5 6 5 13 -1 8 -7 18 -7 27 -2 8 5 18 6 23
3 17 -10 57 -10 57 1 0 7 3 7 8 1 8 -12 42 -13 60 -2 6 5 12 4 12 0 0 -5 19
-8 43 -8 97 3 236 -39 334 -101 115 -73 212 -198 258 -334 1 -3 5 -12 8 -20 4
-8 8 -26 11 -40 2 -14 7 -32 10 -40 3 -8 8 -38 10 -66 2 -28 5 -55 8 -60 4 -8
2 -179 -2 -179 -1 0 -3 -21 -5 -47 -2 -26 -8 -55 -14 -66 -6 -11 -8 -21 -6
-24 14 -13 -65 -192 -114 -258 -27 -38 -122 -130 -133 -130 -4 0 -13 -6 -20
-14 -38 -38 -178 -90 -278 -103 -36 -5 -184 -9 -330 -8 l-265 0 0 745 0 745
23 -1 c12 0 22 3 22 8 0 5 5 6 12 2 6 -4 26 -7 45 -8z"/>
<path d="M11869 18684 c-428 -63 -714 -413 -703 -861 4 -181 50 -329 150 -479
32 -48 65 -83 148 -159 64 -58 247 -142 352 -161 136 -25 295 -24 419 3 37 8
74 14 100 17 11 1 29 7 40 13 11 6 23 11 28 12 4 1 9 2 12 2 3 1 8 2 13 3 51
12 116 42 128 61 28 43 24 76 -15 134 -20 30 -40 61 -46 70 -5 8 -24 30 -40
49 -37 40 -63 43 -160 13 -135 -41 -316 -57 -402 -36 -13 3 -33 7 -45 10 -52
11 -151 69 -198 117 -28 28 -65 80 -82 116 -30 62 -31 65 -13 78 11 9 23 10
28 5 5 -5 22 -5 38 -1 16 5 29 5 29 0 0 -5 13 -5 30 0 17 5 30 5 30 2 0 -9 64
-7 79 3 6 3 11 1 11 -5 0 -8 6 -8 20 0 14 8 20 8 20 0 0 -8 6 -8 20 0 14 8 20
8 20 0 0 -6 5 -8 11 -5 15 10 79 12 79 3 0 -3 14 -3 30 2 17 5 30 6 30 2 0 -9
68 -7 76 1 4 4 15 2 25 -4 11 -5 19 -6 19 -2 0 4 14 8 30 8 17 0 30 -2 30 -5
0 -7 54 -5 66 3 6 3 16 2 23 -3 8 -4 27 -4 42 0 16 5 29 6 29 2 0 -9 58 -8 66
1 4 3 15 2 25 -4 14 -7 19 -6 19 2 0 9 3 9 14 0 8 -7 16 -8 19 -4 4 7 66 9 75
3 7 -5 60 -3 75 3 9 3 17 2 17 -4 0 -6 5 -7 12 -3 7 5 25 7 40 6 16 -1 38 7
54 22 27 22 28 28 26 102 -2 146 -8 179 -56 354 -6 23 -68 140 -97 185 -23 35
-124 142 -161 170 -70 54 -225 129 -291 141 -17 3 -33 7 -37 9 -7 4 -94 14
-170 19 -25 1 -84 -3 -131 -10z m221 -351 c31 -8 27 -7 78 -23 23 -7 47 -19
53 -27 6 -7 17 -13 24 -13 17 0 109 -90 137 -136 33 -53 60 -124 48 -125 -6
-1 -207 -2 -449 -2 -385 -2 -438 0 -436 13 2 8 4 16 5 18 2 1 3 6 4 10 0 5 12
30 25 56 39 76 141 172 201 191 14 4 27 12 31 16 3 5 18 10 35 13 16 2 36 6
44 9 35 14 148 14 200 0z"/>
<path d="M13787 18694 c-1 -1 -20 -5 -42 -8 -133 -20 -219 -63 -316 -159 l-39
-39 0 47 c0 84 -31 116 -115 116 -177 2 -205 -2 -232 -27 l-27 -25 -1 -727 c0
-400 3 -744 8 -764 7 -27 17 -40 39 -49 36 -15 230 -19 271 -6 57 18 56 12 58
486 2 471 2 498 12 508 4 3 7 16 7 27 2 59 115 236 141 220 5 -3 9 -1 9 3 0
14 104 46 152 47 127 4 231 -51 290 -154 49 -85 51 -104 53 -605 1 -258 4
-479 8 -490 13 -40 54 -51 177 -50 63 1 125 5 138 9 46 15 47 24 48 506 2 496
5 533 61 629 40 69 128 143 147 124 3 -4 6 -1 6 4 0 25 180 34 221 13 10 -6
19 -8 19 -5 0 3 17 -4 39 -14 71 -37 131 -118 156 -211 8 -32 11 -179 11 -510
-2 -494 -1 -502 46 -531 35 -22 256 -19 292 4 14 10 27 23 28 30 7 58 10 215
5 257 -2 14 0 32 5 41 4 9 5 19 1 22 -3 4 -5 86 -3 184 2 176 1 199 -4 238 -1
11 1 27 6 36 4 9 5 19 2 21 -2 3 -6 68 -8 144 -2 76 -6 150 -10 163 -11 48
-39 126 -47 135 -5 6 -9 16 -9 24 0 23 -81 135 -134 184 -77 72 -194 125 -316
144 -49 7 -206 4 -250 -5 -80 -17 -135 -34 -150 -45 -8 -7 -28 -18 -45 -26
-55 -27 -155 -122 -181 -171 -13 -26 -17 -28 -29 -15 -8 8 -15 19 -15 24 0 6
-31 42 -69 80 -101 103 -230 160 -374 166 -21 0 -39 0 -40 0z"/>
<path d="M16487 18694 c-1 -1 -27 -5 -57 -9 -359 -42 -662 -297 -746 -627 -13
-52 -15 -67 -18 -111 -2 -27 -6 -50 -9 -53 -2 -3 -3 -19 -1 -37 2 -18 6 -57 8
-87 8 -85 13 -112 35 -176 27 -82 60 -151 93 -198 60 -85 201 -230 213 -218 3
3 5 0 5 -6 0 -7 7 -12 15 -12 8 0 15 -4 15 -10 0 -5 7 -10 15 -10 8 0 15 -3
15 -8 0 -4 12 -13 28 -19 15 -7 53 -23 84 -37 197 -87 451 -94 668 -18 8 3 17
6 20 7 21 5 163 83 198 108 276 204 406 564 318 882 -7 28 -15 56 -17 64 -5
18 -75 160 -91 185 -68 104 -206 228 -313 281 -22 11 -43 24 -46 28 -3 5 -10
9 -15 9 -12 1 -20 3 -74 22 -65 23 -136 37 -210 42 -110 8 -131 9 -133 8z
m183 -368 c68 -18 160 -61 160 -76 0 -6 6 -10 13 -10 21 0 96 -80 131 -140 50
-86 84 -233 62 -269 -4 -6 -3 -11 2 -11 11 0 6 -36 -15 -105 -66 -224 -248
-359 -483 -358 -131 0 -226 29 -315 97 -65 50 -107 100 -145 174 -31 61 -40
93 -44 158 -2 23 -6 46 -8 50 -11 20 24 173 54 234 55 114 203 235 315 257
112 22 184 22 273 -1z"/>
<path d="M19587 18693 c-2 -1 -28 -5 -58 -8 -99 -9 -166 -28 -259 -72 -60 -29
-143 -82 -148 -95 -2 -4 -7 -8 -12 -8 -11 0 -75 -64 -125 -125 -44 -54 -138
-233 -129 -246 3 -5 0 -9 -5 -9 -6 0 -10 -3 -9 -7 1 -5 -1 -21 -5 -38 -4 -16
-10 -41 -13 -55 -24 -113 -22 -296 5 -390 6 -19 12 -46 15 -60 7 -32 28 -91
41 -110 5 -8 10 -17 11 -20 2 -12 18 -45 23 -50 4 -3 19 -25 34 -49 89 -136
250 -251 427 -305 169 -51 311 -54 542 -10 48 9 91 15 94 14 4 -1 10 2 13 7 3
4 38 18 77 31 39 12 79 31 88 41 20 22 29 80 14 98 -6 7 -7 13 -4 13 4 0 -2
10 -14 22 -11 12 -20 28 -20 35 0 8 -4 12 -9 9 -5 -3 -14 7 -21 23 -12 29 -65
90 -81 92 -5 1 -15 2 -21 3 -7 1 -26 -2 -43 -7 -93 -27 -176 -47 -220 -52 -27
-3 -58 -9 -69 -12 -14 -4 -16 -2 -10 8 6 11 5 12 -7 3 -33 -27 -255 13 -294
52 -8 8 -15 12 -15 9 0 -16 -86 59 -121 105 -50 67 -83 140 -69 154 5 5 10 7
10 3 0 -4 9 -3 20 3 14 8 20 8 20 0 0 -6 5 -8 11 -5 15 10 79 12 79 3 0 -3 14
-3 30 2 17 5 30 5 30 2 0 -9 64 -7 79 3 6 3 11 1 11 -5 0 -8 6 -8 20 0 14 8
20 8 20 0 0 -8 6 -8 20 0 14 8 20 8 20 0 0 -6 5 -8 11 -5 15 10 79 12 79 3 0
-3 14 -3 30 2 17 5 30 5 30 2 0 -9 64 -7 79 2 5 4 12 2 16 -4 4 -6 11 -7 17
-4 13 8 68 11 68 4 0 -7 54 -5 66 3 6 3 16 2 23 -3 8 -4 27 -4 42 0 16 5 29 6
29 2 0 -9 58 -8 66 1 4 3 15 2 25 -4 14 -7 19 -6 19 2 0 9 3 9 14 0 8 -7 16
-8 19 -4 4 7 66 9 75 3 7 -5 60 -3 75 3 9 3 17 2 17 -3 0 -16 78 22 87 44 23
51 -5 325 -42 411 -7 17 -20 50 -29 74 -28 72 -102 178 -175 249 -116 114
-261 185 -431 213 -64 10 -178 18 -183 12z m158 -365 c72 -19 125 -41 125 -49
0 -5 6 -9 14 -9 18 0 138 -115 129 -123 -3 -4 -2 -7 4 -7 12 0 66 -120 58
-128 -6 -6 -837 -9 -872 -3 -17 2 -20 7 -14 20 5 9 9 19 10 24 0 4 12 28 25
55 52 102 175 197 281 219 105 21 169 21 240 1z"/>
<path d="M23497 18694 c-1 -1 -27 -4 -57 -7 -114 -12 -272 -68 -347 -124 -18
-13 -33 -22 -33 -19 0 10 -125 -107 -160 -151 -62 -76 -136 -226 -155 -313 -2
-8 -8 -33 -13 -55 -5 -23 -8 -55 -8 -73 1 -18 -1 -32 -5 -32 -6 0 -3 -102 4
-190 16 -179 114 -380 244 -500 65 -61 109 -91 199 -138 161 -83 426 -109 635
-63 24 5 55 12 69 15 41 7 194 57 206 67 6 5 13 6 16 4 10 -10 38 63 34 87 -3
12 -5 26 -5 30 -1 4 -7 13 -13 20 -21 22 -58 77 -58 85 0 4 -20 27 -44 50 -49
47 -51 47 -165 12 -35 -10 -76 -21 -90 -24 -92 -15 -123 -18 -181 -18 -160 -2
-268 38 -369 136 -42 41 -89 118 -106 175 -6 21 -4 23 22 21 15 -2 33 0 38 3
6 4 17 3 24 -2 8 -4 27 -4 42 0 16 5 29 6 29 2 0 -9 58 -8 66 1 4 3 15 2 25
-4 14 -7 19 -6 19 2 0 9 3 9 14 0 8 -7 16 -8 19 -4 4 7 66 9 75 3 7 -5 60 -3
75 3 9 3 17 2 17 -4 0 -6 5 -7 11 -4 13 9 79 12 79 5 0 -7 59 -5 66 3 4 3 14
2 23 -3 10 -5 23 -5 30 0 8 4 27 4 43 0 17 -5 26 -5 23 1 -4 5 -2 9 4 9 5 0
13 -5 16 -10 4 -6 11 -7 17 -4 14 9 69 11 73 3 2 -3 27 -3 55 1 27 4 50 4 50
1 0 -8 54 -6 66 2 6 3 16 2 23 -3 8 -4 27 -4 42 0 16 5 29 6 29 2 0 -4 14 -7
30 -7 17 0 30 3 30 7 0 3 9 4 21 1 13 -4 29 3 48 21 26 25 27 29 25 123 -3
105 -6 131 -25 220 -15 69 -13 62 -27 96 -7 16 -12 31 -12 35 0 18 -78 156
-110 196 -27 34 -128 136 -135 136 -3 0 -15 9 -27 19 -48 45 -188 108 -293
131 -76 17 -228 32 -238 24z m133 -360 c8 -3 26 -8 40 -9 49 -5 145 -60 201
-116 49 -49 119 -164 119 -195 0 -11 -270 -11 -287 -1 -6 4 -14 4 -16 0 -6 -9
-127 -10 -142 -2 -6 3 -21 4 -35 2 -53 -7 -202 -8 -207 0 -2 4 -12 3 -21 -1
-21 -10 -143 -9 -159 1 -8 5 -13 3 -13 -3 0 -6 -4 -9 -10 -5 -5 3 -6 15 -1 28
62 162 184 266 350 300 63 13 151 14 181 1z"/>
<path d="M24475 18652 c-41 -3 -80 -31 -90 -63 -5 -13 60 -195 115 -324 10
-24 41 -101 85 -215 10 -25 21 -54 26 -65 8 -21 28 -70 74 -190 15 -38 31 -79
36 -90 5 -11 38 -96 75 -190 165 -427 166 -430 200 -452 36 -23 351 -27 402
-4 37 17 64 69 122 231 13 36 29 68 34 72 6 4 7 8 2 8 -5 0 -4 6 2 13 6 6 10
16 10 20 0 9 48 137 68 182 18 42 124 315 124 320 0 3 9 24 19 48 11 23 36 85
56 137 20 52 47 120 60 152 13 31 21 59 18 62 -4 3 -1 6 5 6 7 0 11 3 10 8 -1
4 3 18 9 32 6 14 20 52 32 85 13 33 27 65 33 72 6 7 8 13 4 13 -4 0 0 12 8 28
15 30 8 51 -28 84 -20 19 -36 20 -191 19 -132 -1 -138 -4 -164 -62 -13 -27
-24 -55 -25 -62 -3 -14 -12 -35 -37 -96 -11 -24 -19 -47 -19 -51 0 -4 -7 -24
-15 -44 -8 -20 -15 -38 -15 -41 0 -3 -6 -18 -14 -34 -9 -16 -12 -31 -9 -35 4
-3 0 -6 -7 -6 -7 0 -10 -3 -7 -6 3 -4 1 -16 -5 -28 -7 -11 -13 -25 -14 -31 -4
-18 -42 -118 -73 -195 -17 -41 -31 -79 -31 -83 0 -5 -6 -23 -14 -40 -7 -18
-28 -70 -45 -117 -18 -47 -36 -93 -42 -102 -5 -10 -9 -23 -9 -30 0 -7 -6 -25
-14 -39 -7 -14 -16 -37 -20 -52 -7 -30 -26 -37 -26 -9 0 10 -4 22 -8 27 -5 6
-15 30 -22 55 -7 25 -18 54 -24 65 -6 11 -11 22 -12 25 0 3 -4 14 -8 25 -4 11
-16 43 -26 70 -27 75 -81 217 -91 240 -4 11 -22 58 -39 105 -17 47 -35 94 -40
105 -23 50 -142 371 -143 383 0 6 -4 12 -9 12 -4 0 -8 6 -8 14 0 7 -13 19 -28
25 -28 12 -179 19 -257 13z"/>
</g>
</svg>
