<?xml version="1.0" encoding="utf-8"?>
<!-- Generator: Adobe Illustrator 25.4.1, SVG Export Plug-In . SVG Version: 6.00 Build 0)  -->
<svg version="1.1" xmlns="http://www.w3.org/2000/svg" xmlns:xlink="http://www.w3.org/1999/xlink" x="0px" y="0px"
	 viewBox="0 0 3649 1000" style="enable-background:new 0 0 3649 1000;" xml:space="preserve">
<style type="text/css">
	.st0{enable-background:new    ;}
	.st1{fill:#005BC5;}
	.st2{fill:#FEFEFE;}
	.st3{fill:#5D94CE;}
</style>
<g id="Shape_1_00000112608199989890147640000004914844890369550009_" class="st0">
	<g id="Shape_1">
		<g>
			<path class="st1" d="M836.1,415.2c-1.2-29.9-10.7-59.4-26.9-84.5c-15.6-24.2-37.4-44.3-62.8-57.8c-22.5-12.1-47.8-18.8-73.4-19.6
				c-24-0.8-48.2,3.5-70.4,12.7c-30.9,12.7-57.8,34.9-76.2,62.8c-17.3,26-27,56.8-27.9,88c-0.8,23,4,45.9,12.1,67.3
				c10.8,28.9,26.7,55.4,42.2,81.8c27.5,45.9,59.9,88.9,97.1,127.4c2.2,2.4,4.6,4.5,7.5,5.9c7.1,3.6,16.1,2.8,22.6-1.8
				c2.7-1.9,4.9-4.4,7.2-6.7c36.1-36.4,67.6-77.2,94.3-121c14.8-24.1,28.9-48.8,39.4-75.2C831,469.3,837.4,442.3,836.1,415.2z"/>
		</g>
	</g>
</g>
<g id="Rectangle_1_00000077321917484028337870000012853373625645860228_" class="st0">
	<g id="Rectangle_1">
		<g>
			<path class="st2" d="M691.8,501.8H644c-5.1,0-9.1,4.1-9.1,9.1c0,5.1,4.1,9.1,9.1,9.1h47.8c5.1,0,9.1-4.1,9.1-9.1
				C701,505.9,696.9,501.8,691.8,501.8z"/>
		</g>
	</g>
</g>
<g id="Rectangle_1_copy_00000138575089268021667710000006941783161642150318_" class="st0">
	<g id="Rectangle_1_copy">
		<g>
			<path class="st3" d="M623.8,428.7H576c-5.1,0-9.1,4.1-9.1,9.1c0,5.1,4.1,9.1,9.1,9.1h47.8c5.1,0,9.1-4.1,9.1-9.1
				C633,432.8,628.9,428.7,623.8,428.7z"/>
		</g>
	</g>
</g>
<g id="Rectangle_1_copy_5_00000137098011614727418630000003849705688331110554_" class="st0">
	<g id="Rectangle_1_copy_5">
		<g>
			<path class="st2" d="M761.2,428.9H657.3c-5,0-9,4-9,9c0,5,4,9,9,9h103.9c5,0,9-4,9-9C770.2,432.9,766.1,428.9,761.2,428.9z"/>
		</g>
	</g>
</g>
<g id="Rectangle_1_copy_2_00000098190757915209921240000003348968676325255054_" class="st0">
	<g id="Rectangle_1_copy_2">
		<g>
			<path class="st2" d="M673.4,465.2h-80.5c-5.1,0-9.1,4.1-9.1,9.1c0,5.1,4.1,9.1,9.1,9.1h80.5c5.1,0,9.1-4.1,9.1-9.1
				C682.6,469.3,678.5,465.2,673.4,465.2z"/>
		</g>
	</g>
</g>
<g id="Rectangle_1_copy_4_00000011711414123523312320000003016357022430392977_" class="st0">
	<g id="Rectangle_1_copy_4">
		<g>
			<path class="st3" d="M739.6,465.2h-34.1c-5.1,0-9.1,4.1-9.1,9.1c0,5.1,4.1,9.1,9.1,9.1h34.1c5.1,0,9.1-4.1,9.1-9.1
				C748.7,469.3,744.6,465.2,739.6,465.2z"/>
		</g>
	</g>
</g>
<g id="Rectangle_1_copy_3_00000011722425078258532190000000899323654384464027_" class="st0">
	<g id="Rectangle_1_copy_3">
		<g>
			<path class="st2" d="M761,392.1H576c-5.1,0-9.1,4.1-9.1,9.1c0,5.1,4.1,9.1,9.1,9.1h185c5.1,0,9.1-4.1,9.1-9.1
				C770.1,396.2,766,392.1,761,392.1z"/>
		</g>
	</g>
</g>
<g id="Rectangle_1_copy_3_00000093890218109566472320000014350436870585246854_" class="st0">
	<g id="Rectangle_1_copy_3_00000023962037812405364070000001573838340701856955_">
		<g>
			<path class="st3" d="M678.3,318.9h-21.9c-5.1,0-9.1,4.1-9.1,9.1c0,5.1,4.1,9.1,9.1,9.1h21.9c5.1,0,9.1-4.1,9.1-9.1
				C687.4,323,683.3,318.9,678.3,318.9z"/>
		</g>
	</g>
</g>
<g id="Rectangle_1_copy_3_00000134949760366119356760000017006228719899243173_" class="st0">
	<g id="Rectangle_1_copy_3_00000095316114191014804990000011072207393064897940_">
		<g>
			<path class="st2" d="M746,355h-41c-5,0-9,4-9,9c0,5,4,9,9,9h41c5,0,9-4,9-9C755,359,751,355,746,355z"/>
		</g>
	</g>
</g>
<g id="Rectangle_1_copy_6_00000143601268447693708210000000603678550901579142_" class="st0">
	<g id="Rectangle_1_copy_6">
		<g>
			<path class="st2" d="M674,355h-81c-5,0-9,4-9,9c0,5,4,9,9,9h81c5,0,9-4,9-9C683,359,679,355,674,355z"/>
		</g>
	</g>
</g>
<g id="RemoteDev">
	<g>
		<path class="st1" d="M1113.1,612.8c0,4.5-2.6,7.6-7.6,7.6h-24.2c-2.3,0-4.5-0.8-5.7-2.6l-50.7-62.5h-38.6v57.2
			c0,3.8-3.8,7.9-7.6,7.9h-22c-3.8,0-7.6-4.2-7.6-7.9V409.2c0-3.8,3.8-7.9,7.6-7.9h81.4c0,0,76.5,0.8,76.5,77.2
			c0,46.2-28,64.7-50.3,71.9L1113.1,612.8z M986.3,520.5h49.6c23.5,0,41.6-10.6,41.6-42s-18.2-42.4-41.6-42.4h-49.6V520.5z"/>
		<path class="st1" d="M1281.5,548.1c0,3.8-3.8,7.9-7.6,7.9h-120.4c7.9,26.9,30.3,33.7,48.1,33.7c0,0,17.4-0.4,34.4-6.8
			c0.8-0.4,1.5-0.4,2.3-0.4c3.4,0,5.7,1.1,7.6,3.8l10.2,14.4c0.8,1.5,1.5,3.4,1.5,5.3c0,3.8-2.3,6.8-5.3,8.3
			c-11,4.2-29.9,10.2-51.1,10.2c-48.4,0-84.8-33.7-84.8-84.4c0-46.6,34.1-84.4,82.5-84.4c42,0,82.5,29.9,82.5,87.8V548.1z
			 M1153.9,524.3h90.1c-6.8-23.8-27.3-33.7-45-33.7C1181.2,490.6,1160.8,500.4,1153.9,524.3z"/>
		<path class="st1" d="M1509,526.2c0-11.4-5.3-35.6-32.2-35.6c-29.1,0-34.1,26.1-34.1,40.9v81c0,3.8-3.8,7.9-7.6,7.9h-22
			c-3.8,0-7.6-4.2-7.6-7.9v-86.3c0-11.4-5.3-35.6-32.9-35.6c-30.7,0-33.7,31.8-33.7,43.1v78.7c0,3.8-3.8,7.9-7.6,7.9h-22
			c-3.8,0-7.6-4.2-7.6-7.9V467.9c0-3.8,3.8-7.9,7.6-7.9h22c3.8,0,7.6,4.2,7.6,7.9v8.3c17.8-20.4,38.2-20.4,43.1-20.4
			c20.4,0,36.7,10.2,47.3,28.4c17-28.4,45-28.4,54.1-28.4c50.3,0,62.5,42.4,62.5,62.8v93.9c0,3.8-3.8,7.9-7.6,7.9h-22
			c-3.8,0-7.6-4.2-7.6-7.9V526.2z"/>
		<path class="st1" d="M1741.4,540.2c0,46.6-38.6,84.4-87.8,84.4c-49.2,0-87.8-37.8-87.8-84.4c0-46.6,38.6-84.4,87.8-84.4
			C1702.8,455.8,1741.4,493.6,1741.4,540.2z M1704.3,540.2c0-28.8-22.7-49.6-50.7-49.6c-28,0-50.7,20.8-50.7,49.6
			c0,28.8,22.7,49.6,50.7,49.6C1681.6,589.8,1704.3,568.9,1704.3,540.2z"/>
		<path class="st1" d="M1756.9,494.8c-3.8,0-7.6-3.4-7.6-7.2v-20.1c0-4.2,3.8-7.6,7.6-7.6h26.9v-49.6c0-4.2,2.3-6.4,6.4-7.6
			l22.7-6.4c3.8,0,7.9,4.5,7.9,8.7v54.9h36.3c3.8,0,7.6,3.4,7.6,7.6v20.1c0,3.8-3.8,7.2-7.6,7.2h-36.3v64.7c0,6.8,0.4,28,29.1,28
			c0,0,3.4,0,7.2,0c3.4,0,7.2,3,7.2,6.8v18.9c0,3.4-3,6.4-6.8,6.4c-4.9,0.4-11.7,0.8-20.1,0.8c-8.3,0-53.7,0-53.7-61.7v-64H1756.9z"
			/>
		<path class="st1" d="M2045.7,548.1c0,3.8-3.8,7.9-7.6,7.9h-120.4c7.9,26.9,30.3,33.7,48.1,33.7c0,0,17.4-0.4,34.4-6.8
			c0.8-0.4,1.5-0.4,2.3-0.4c3.4,0,5.7,1.1,7.6,3.8l10.2,14.4c0.8,1.5,1.5,3.4,1.5,5.3c0,3.8-2.3,6.8-5.3,8.3
			c-11,4.2-29.9,10.2-51.1,10.2c-48.4,0-84.8-33.7-84.8-84.4c0-46.6,34.1-84.4,82.5-84.4c42,0,82.5,29.9,82.5,87.8V548.1z
			 M1918.1,524.3h90.1c-6.8-23.8-27.3-33.7-45-33.7C1945.4,490.6,1924.9,500.4,1918.1,524.3z"/>
		<path class="st1" d="M2073.7,620.4c-3.8,0-7.6-4.2-7.6-7.9V409.2c0-3.8,3.8-7.9,7.6-7.9h75.7c65.1,0,108.2,47.3,108.2,109.8
			c0,62.5-43.1,109.4-108.2,109.4H2073.7z M2103.2,436.1v149.5h48.4c43.1,0,68.9-30.7,68.9-74.6s-25.7-74.9-68.9-74.9H2103.2z"/>
		<path class="st1" d="M2436.7,548.1c0,3.8-3.8,7.9-7.6,7.9h-120.4c7.9,26.9,30.3,33.7,48.1,33.7c0,0,17.4-0.4,34.4-6.8
			c0.8-0.4,1.5-0.4,2.3-0.4c3.4,0,5.7,1.1,7.6,3.8l10.2,14.4c0.8,1.5,1.5,3.4,1.5,5.3c0,3.8-2.3,6.8-5.3,8.3
			c-11,4.2-29.9,10.2-51.1,10.2c-48.4,0-84.8-33.7-84.8-84.4c0-46.6,34.1-84.4,82.5-84.4c42,0,82.5,29.9,82.5,87.8V548.1z
			 M2309.1,524.3h90.1c-6.8-23.8-27.3-33.7-45-33.7C2336.4,490.6,2315.9,500.4,2309.1,524.3z"/>
		<path class="st1" d="M2505.2,620.4c-4.5,0-8.3-3-9.5-5.7l-57.5-146.5c0-4.2,3.8-8.3,7.9-8.3h23.8c3,0,6.1,2.3,7.2,5.3l43.1,113.9
			l43.1-113.9c1.1-3,4.2-5.3,7.2-5.3h23.8c4.2,0,7.9,4.2,7.9,8.3l-57.5,146.5c-1.1,2.6-4.9,5.7-9.5,5.7H2505.2z"/>
	</g>
</g>
</svg>
